<svg id="visual" viewBox="0 0 900 600" width="900" height="600" xmlns="http://www.w3.org/2000/svg" xmlns:xlink="http://www.w3.org/1999/xlink" version="1.1"><rect x="0" y="0" width="900" height="600" fill="#ffffff"></rect><path d="M0 524L30 526.7C60 529.3 120 534.7 180 540.3C240 546 300 552 360 555.3C420 558.7 480 559.3 540 553.8C600 548.3 660 536.7 720 533.8C780 531 840 537 870 540L900 543L900 601L870 601C840 601 780 601 720 601C660 601 600 601 540 601C480 601 420 601 360 601C300 601 240 601 180 601C120 601 60 601 30 601L0 601Z" fill="#e8fffe" stroke-linecap="round" stroke-linejoin="miter"></path></svg>